<svg version="1.2" xmlns="http://www.w3.org/2000/svg" viewBox="0 0 1000 1000" width="1000" height="1000">
	<title>PSisotipo-lite</title>
	<style>
		.s0 { opacity: 1;fill: #632caf } 
		.s1 { opacity: 1;fill: #5931b8 } 
		.s2 { opacity: 1;fill: #e8623c } 
		.s3 { opacity: 1;fill: #316bd8 } 
		.s4 { opacity: 1;fill: #993380 } 
		.s5 { opacity: 1;fill: #08d1f8 } 
		.s6 { opacity: 1;fill: #882d8e } 
		.s7 { opacity: 1;fill: #3f52cd } 
		.s8 { opacity: 1;fill: #3a5ad1 } 
		.s9 { opacity: 1;fill: #3662d4 } 
		.s10 { opacity: 1;fill: #5039bf } 
		.s11 { opacity: 1;fill: #712ca3 } 
		.s12 { opacity: 1;fill: #4449c9 } 
		.s13 { opacity: 1;fill: #4a41c4 } 
		.s14 { opacity: 1;fill: #0ec0f3 } 
		.s15 { opacity: 1;fill: #7a2c9a } 
		.s16 { opacity: 1;fill: #ad3d6e } 
		.s17 { opacity: 1;fill: #b54167 } 
		.s18 { opacity: 1;fill: #a43976 } 
		.s19 { opacity: 1;fill: #dc5a46 } 
		.s20 { opacity: 1;fill: #17a9ec } 
		.s21 { opacity: 1;fill: #d15251 } 
		.s22 { opacity: 1;fill: #297dde } 
		.s23 { opacity: 1;fill: #c34a5c } 
		.s24 { opacity: 1;fill: #2092e5 } 
		.s25 { opacity: .9;fill: #7e2e97 } 
		.s26 { opacity: .2;fill: #732da2 } 
		.s27 { opacity: .2;fill: #395dd2 } 
		.s28 { opacity: .2;fill: #5436bc } 
		.s29 { opacity: .2;fill: #b84365 } 
	</style>
	<g id="Capa 8">
		<path id="Path 0" class="s0" d="m479 83.8l27.9 0.3c15.4 0.2 28.1 0.6 28.3 0.9c0.1 0.3 0.2 8.8-0.3 37.5l-26.7-0.3c-15.2-0.2-27.1-0.8-27.7-1.3c-0.6-0.6-1.1-8.7-1.3-19.1zm54.8 794.5c1.7-0.2 2.4 0.4 2.9 2.5c0.4 1.5 0.7 8.1 0.9 26.7l-4.5 0.8c-2.5 0.4-14.1 0.9-25.7 1c-11.6 0.1-21.5-0.1-22-0.6c-0.5-0.4-0.8-6.3-0.7-13c0.1-6.7 0.2-13.1 0.4-16.6l23.2-0.3c12.8-0.2 24.3-0.4 25.5-0.5z"/>
		<path id="Path 1" class="s1" d="m479 84l0.1 14.3c0 7.8 0.3 16.3 1.4 23.7h-9c-4.9 0-13.9 0.5-20 1c-6.1 0.6-11.1 0.9-11.2 0.8c-0.2-0.2-0.7-3-1.3-6.3c-0.5-3.3-1.3-11-2.5-28.3l5-0.7c2.7-0.3 6.1-1.1 7.5-1.7c1.4-0.6 5-1.4 8-1.8c3-0.4 9.2-0.8 22-1zm-34.5 793.7l8 0.7c4.4 0.3 13.4 0.6 32 0.6v30.3l-18.5-0.6c-10.2-0.3-19.8-1-21.4-1.4c-2.7-0.8-2.8-1-2.2-5.3c0.3-2.5 1-8.9 1.4-14.4z"/>
		<path id="Path 2" class="s2" d="m876 344c0.4 0.8 2.4 6.3 4.4 12.3c2 5.9 3.6 11.4 3.6 12.2c0 0.8 1.1 5 2.5 9.3c1.4 4.2 3.4 11.5 4.4 16.2c1.1 4.7 2.8 11.9 3.9 16c1.1 4.1 2.9 12.7 4.1 19c1.2 6.3 2.7 15.3 3.3 20c0.8 5.3 1.2 23.1 1.2 47.5c0.1 25.8-0.4 42.2-1.2 48.5c-0.7 5.2-1.9 12.4-2.7 16c-0.7 3.6-2.3 11.2-3.4 17c-1.2 5.8-3.7 16.1-5.5 23c-1.9 6.9-4.8 17.5-6.5 23.5c-1.6 6-3.6 12.8-5.7 19l-2.3-6c-1.3-3.3-2.9-8.3-3.6-11c-0.8-2.8-2.3-10.2-3.4-16.5c-1.2-6.3-2.7-14.6-3.3-18.3c-0.7-3.8-1.7-6.5-2.1-6c-0.4 0.4-0.7-1.2-0.7-3.7c0-2.5 0.9-10.6 2-18c1.1-7.4 2.7-17.8 3.6-23c1.3-7.6 1.6-16.3 1.6-42.5c-0.1-18.1-0.6-35.5-1.1-38.5c-0.6-3-2.2-12.7-3.6-21.5c-1.4-8.8-3.2-18.3-4.1-21c-1.5-4.7-1.4-6 0.5-19.5c1.1-8 2.1-18.7 2.1-23.8c0-5 0.5-11.6 1.1-14.4c0.6-2.9 2.5-7.6 4.2-10.5c1.8-2.9 3.5-5 3.9-4.7c0.5 0.2 1.1-0.2 1.4-0.8c0.5-1 0.9-0.9 1.4 0.2z"/>
		<path id="Path 3" class="s3" d="m275.3 149l1.9 8.8c1 4.8 3 11.7 4.3 15.4c1.4 3.8 2.5 7.5 2.5 8.3c0 0.8-2.4 2.9-5.3 4.7c-2.8 1.8-7.2 4.8-9.7 6.7c-2.5 2-7.2 5.9-10.5 8.8c-3.3 2.9-6.2 5.3-6.5 5.3c-0.3 0-1.9-3-3.7-6.7c-1.8-3.7-4.4-11-8.3-25.3l12.2-9.3c6.7-5 14.7-10.9 17.7-12.9zm-16.9 649.7c1.3 1 4.9 3.8 8.2 6.3c3.2 2.5 9.6 6.8 14.1 9.5c4.5 2.7 8.2 5.5 8.2 6.2c0 0.7-0.3 1.4-0.7 1.5c-0.4 0.1-1.8 3.2-3.1 6.7c-1.3 3.6-3.1 9-4 12c-0.8 3.1-1.7 5.7-1.8 5.8c-0.2 0.1-2.5-1.2-5.1-2.9c-2.6-1.7-10.5-7.5-30.5-22.4l0.7-4c0.3-2.2 2.2-7.3 4.1-11.5c2.4-5.2 3.4-6.7 3.4-5c0.1 2.5 0.1 2.5 2.2-0.7c2-3.2 2.1-3.2 4.3-1.5z"/>
		<path id="Path 4" class="s4" d="m675.8 128.1c1.5 0.6 7.4 3.4 13.2 6.3c5.8 2.9 14.7 8 19.8 11.4c5 3.4 9.2 6.6 9.2 7.2c0 0.6-1.6 5.8-3.5 11.8c-1.9 5.9-3.5 12.3-3.5 14.2c0 1.9-0.2 5-1 10l-5.2-3.6c-2.9-1.9-12.9-7.9-39.3-23.2l0.3-4.4c0.2-2.4 1.7-8.8 3.3-14.3c1.6-5.5 2.8-11.2 2.7-12.6c-0.1-1.4 0.2-2.8 0.6-3.2c0.4-0.3 1.9-0.1 3.4 0.4zm44.5 675c0.4-0.1 0.7 2.3 0.7 5.2c0 3.2 0.9 7.9 2.6 12.2c1.4 3.9 2.8 8.9 3.4 15.5l-13.2 8.7c-7.3 4.9-18.5 11.4-36.3 20.4l-0.5-5.9c-0.3-3.3-0.8-6.4-1.3-6.9c-0.4-0.4-0.8-0.1-0.8 0.7c0 0.8-0.9-1.2-1.9-4.5c-1.1-3.3-2.1-7.1-2.3-8.5c-0.2-1.4-0.6-3-1-3.5c-0.3-0.5 6.3-5.1 14.6-10.2c8.4-5.1 19.7-12.3 25.2-16.2c5.5-3.8 10.3-7 10.8-7z"/>
		<path id="Path 5" class="s5" d="m114.2 362c1.7 5.2 3.5 10.9 4.1 12.5c0.6 1.6 3.5 5.5 11.6 14l-1.9 9.5c-1 5.2-2.3 10.9-2.9 12.5c-0.5 1.6-1.7 7.1-2.6 12c-0.9 4.9-2.2 11.3-3 14c-0.7 2.8-2 10.6-2.7 17.5c-0.8 7.8-1.3 25.3-1.3 46.5c0 21.7 0.5 38.3 1.3 46c0.8 6.6 1.8 13.6 2.3 15.5c0.6 1.9 2 8.7 3.3 15c1.3 6.6 1.9 12.6 1.5 14c-0.3 1.4-2 7-3.7 12.5c-1.7 5.5-3.3 13.1-3.6 17c-0.3 3.9-1.3 11-2.3 16c-1.3 5.9-2.1 8.3-2.5 7c-0.4-1.1-3.2-9.2-6.2-18c-3.1-8.8-7.6-24.1-10.1-34c-2.4-9.9-5.3-24.1-6.3-31.5c-1.1-7.4-2.5-14.6-3.3-16c-1.1-2-1.4-11-1.4-47.6c0-34.1 0.3-45.4 1.2-46.5c0.7-0.8 2.2-7.7 3.3-15.4c1.1-7.7 4-22.1 6.5-32c2.4-9.9 6.5-24.1 9.1-31.5c2.5-7.4 5.1-14.6 5.7-16c0.9-2.3 1.3-1.6 3.9 7z"/>
		<path id="Path 6" class="s6" d="m625 106.6c0.8 0.3 6.5 2.4 12.5 4.6c6 2.2 16.4 6.6 35.2 15.3l-0.7 5c-0.5 2.8-2 8.8-3.4 13.5c-1.4 4.7-2.6 9.7-2.6 11.3c0 1.5-0.2 3.4-0.5 4.2c-0.4 1.2-1.7 0.9-7.3-1.9c-3.7-1.9-9.2-4.6-12.2-6c-3-1.3-10.1-4.3-15.8-6.5c-5.6-2.3-10.7-4.1-11.2-4.1c-0.5 0-1-1.5-1-3.2c0-1.8 0.5-6.5 1.1-10.3c0.5-3.8 1.4-7.4 1.9-8c0.5-0.5 1.2-4 1.7-7.8c0.6-5.4 1.1-6.6 2.3-6.1zm43.8 729.5c0.6-0.1 1.2 0.2 1.3 0.7c0 0.4 0.3 1.8 0.5 3.2c0.2 1.4 1.3 5.2 2.4 8.5c1 3.3 1.9 5.3 2 4.5c0.1-1 0.4-0.9 1 0.5c0.5 1.1 0.9 4.1 1 11.5l-12.3 5.8c-6.7 3.3-17 7.8-22.9 10c-6 2.3-11.5 4.2-12.3 4.2c-0.9 0-1.9-1.6-2.6-4.2c-0.6-2.4-1.8-6.3-2.5-8.8c-0.8-2.5-1.4-6.9-1.4-15l5.7-2.6c3.2-1.4 8-3.5 10.8-4.5c2.7-1 10.2-4.5 16.5-7.8c6.3-3.3 12.1-6 12.7-6z"/>
		<path id="Path 7" class="s7" d="m345.1 115.8c0.4 0.9 0.8 2.9 0.8 4.5c0.1 1.5 1.2 7.3 2.6 13c1.4 5.6 2.8 11 3 12c0.4 1.3-0.8 2.3-4.8 4.1c-2.8 1.3-8.1 3.7-18.2 8.4l-1.9-6.7c-1-3.6-2.5-10-3.3-14.1c-0.8-4.4-1-8.7-0.6-10.4c0.7-2.5 2.2-3.6 11.2-7.7c9.3-4.2 10.6-4.6 11.2-3.1zm-13.9 728.2c0.7 0 6.5 2.6 24.3 11.5l-0.4 3.5c-0.2 1.9-1.2 6-2.2 9c-1.1 3-1.9 7.4-1.9 9.7c0 2.4-0.1 4.3-0.3 4.3c-0.1 0-6.1-2.5-13.2-5.6c-7.2-3-13.1-5.6-13.3-5.7c-0.1-0.1 1.1-4 2.8-8.7c1.8-5 3-10.5 3-13.3c0-3.1 0.4-4.7 1.2-4.7z"/>
		<path id="Path 8" class="s8" d="m321.3 124.1l1.3 9.2c0.8 5.1 2 11.2 2.8 13.7c0.8 2.5 1.7 6 2 7.8c0.6 3.2 0.6 3.2-9.2 8.3c-5.3 2.7-10 4.6-10.3 4.2c-0.4-0.4-2.3-5.7-4.2-11.8c-1.9-6.1-3.7-13.2-4.4-21l11-5.2zm-10.1 708.9l2.7 1.8c1.4 1 5.6 3.2 16.1 8.2v5.2c0 3.2-1 8.3-2.6 12.8c-1.5 4.1-3 7.9-3.3 8.3c-0.3 0.5-5.2-1.3-10.8-4c-5.7-2.7-9.9-5.3-9.6-5.8c0.4-0.6 0.6-2.4 0.5-4c0-1.7 0.5-5 1.2-7.5c0.8-2.5 2.4-6.9 3.6-9.8z"/>
		<path id="Path 9" class="s9" d="m299.1 136.4c0.5 0.6 0.9 2.6 0.9 4.3c0 1.8 1.6 8.4 3.6 14.5c2 6.2 3.8 11.9 4 12.5c0.2 0.8-4.5 4.1-11.1 8c-6.4 3.8-11.7 6.6-11.9 6.3c-0.2-0.3-1.7-4.6-3.3-9.5c-1.7-4.9-3.7-12.3-4.4-16.3c-1.2-6.5-1.2-7.5 0.1-8.3c0.8-0.5 6-3.6 11.4-6.8c6.9-4.1 10.2-5.5 10.7-4.7zm-9.4 683.6c0.2 0 4.7 2.8 10 6.2c5.4 3.4 10.2 6.4 10.6 6.7c0.5 0.3 0.2 1.9-0.6 3.6c-0.8 1.6-2.4 5.9-3.6 9.5c-1.1 3.6-1.9 7.9-1.8 9.7c0.1 1.7-0.1 3.5-0.6 4c-0.4 0.4-2.4 0-4.5-1c-2-1.1-7.2-4-19.4-11.2l0.6-3.8c0.3-2 2-7.1 3.7-11.2c1.7-4.2 3-8 3-8.5c-0.1-0.6 0.5-1.7 1.1-2.5c0.7-0.8 1.4-1.4 1.5-1.5z"/>
		<path id="Path 10" class="s10" d="m435.3 89.1c1.4-0.1 1.7 0.8 1.7 5.7c0 3.1 0.5 9.8 1 14.7c0.6 5 1.2 10.2 1.5 11.8c0.4 2.2 0.1 2.8-1.8 3.2c-1.2 0.2-7.4 1.5-13.7 2.9c-6.3 1.3-13 2.7-14.8 3q-3.2 0.6-3.6-0.6c-0.2-0.7-0.9-6-1.5-11.8c-0.6-5.8-1.3-13.2-2.3-22.5l7.4-1.7c4-1 10-2.2 13.3-2.8c3.3-0.5 7.1-1.1 8.5-1.4c1.4-0.2 3.3-0.4 4.2-0.5zm-23.3 782.9c0.9 0 5.2 0.9 9.6 1.9c4.4 1.1 11.3 2.3 22.5 3.6v4.8c0 2.6-0.5 9.1-1.1 14.5c-0.6 5.3-1.1 9.8-1.2 9.9c-0.1 0.2-1.6-0.2-3.2-0.7c-1.6-0.5-9.1-2.1-16.5-3.5c-7.4-1.4-13.8-2.8-14.1-3.2c-0.3-0.5-0.2-3.9 0.2-7.8c0.5-3.9 1.1-9.8 1.5-13.3c0.5-4.8 1-6.2 2.3-6.2z"/>
		<path id="Path 11" class="s11" d="m538.8 86.4c1.5 0.7 8.8 2.1 16.2 3c7.4 0.9 16.2 2.3 19.5 3.2c3.3 0.8 6 1.6 6.1 1.7c0 0.1-0.3 4-0.7 8.7c-0.4 4.7-1.1 12.8-2.2 27.5l-7.6-1.3c-4.2-0.7-9.6-1.9-12.1-2.7c-2.5-0.8-7.2-1.7-10.5-2c-3.3-0.3-7.5-0.8-12.5-1.5v-17.5c0-9.6 0.3-18.2 0.6-19c0.5-1.2 0.9-1.3 3.2-0.1zm42 783.7c0.7-0.1 1.4 1.5 1.7 3.6c0.3 2.1 1 6.3 1.5 9.3c0.5 3 1 6.8 1 8.5c0 1.6 0.4 3.4 0.9 4c0.6 0.5 0.7 1.5 0.3 2.2c-0.4 0.7-3.4 1.9-6.7 2.7c-3.3 0.9-11.4 2.5-18 3.6c-6.6 1.2-14.5 2.5-17.5 3c-3 0.6-5.7 1-6 1c-0.3 0-0.5-5.3-0.6-11.8c0-6.4-0.3-13.1-1.3-17.7l11.7-1.3c6.4-0.7 13.3-1.7 15.2-2.3c1.9-0.6 6.4-1.9 10-2.9c3.6-1 7.1-1.9 7.8-1.9z"/>
		<path id="Path 12" class="s12" d="m373.3 103.2l0.8 7.1c0.5 4 1.3 9.1 1.9 11.4c0.5 2.4 1 6.8 1 9.8c0 5-0.2 5.6-2.8 6.9c-1.5 0.7-5.8 2.4-9.7 3.6c-3.9 1.3-8.1 2.9-9.5 3.6c-2 1.1-2.6 1.1-3.1 0.1c-0.3-0.6-1.8-6.1-3.2-12.2c-1.4-6.1-2.8-12.9-3.7-19.5l6.2-2.5c3.5-1.4 9.9-3.8 14.2-5.4zm-17.6 753.1l10.4 2.8c5.7 1.6 11.7 3.2 13.3 3.7c1.6 0.4 3.1 1.4 3.4 2.2c0.2 0.8-0.5 5.1-1.6 9.5c-1.3 5.1-1.9 9.4-1.5 12c0.3 2.2 0.2 4.3-0.3 4.7c-0.5 0.3-6.5-1.3-13.4-3.6c-6.9-2.3-13.1-4.5-13.8-4.9c-0.7-0.4-1.2-2.6-1.2-4.9c0-2.4 0.8-7 1.9-10.3c1.1-3.3 2.1-7.2 2.4-8.6z"/>
		<path id="Path 13" class="s13" d="m400.4 96.1c1.7-0.1 2 0.7 2.3 5.7c0.2 3.1 0.8 10 1.4 15.2c0.5 5.2 1.1 10.5 1.2 11.7c0.2 1.9-0.8 2.3-10.8 4.7c-6 1.4-12.5 2.8-17.5 3.6v-5.7c0-3.2-0.4-7.4-1-9.3c-0.5-1.9-1.3-6.9-2.3-18.5l11.4-3.3c6.3-1.9 11.9-3.5 12.4-3.7c0.6-0.2 1.9-0.4 2.9-0.4zm-16.7 767.9c0.2 0 4 1.4 8.6 3c4.5 1.7 10.4 3.4 18 4.5l-0.7 6.5c-0.4 3.6-1 9.5-1.4 13.2c-0.4 3.6-1 7-1.5 7.5c-0.4 0.4-3.8 0-7.5-1c-3.7-1-9.6-2.7-19.7-5.8v-5.2c0-2.9 0.9-9.1 1.9-13.9c1.1-4.9 2.1-8.8 2.3-8.8z"/>
		<path id="Path 14" class="s14" d="m140.1 291c0.5 0 1.5 2.1 2.3 4.8c0.8 2.6 1.7 6.3 2 8.2c0.3 1.9 1.9 6.3 3.6 9.8c2 4 3.6 6.2 4.8 6.2c0.9 0 2.5 0.7 3.5 1.5c1.6 1.4 1.6 1.7-0.4 5.3c-1.2 2-3.2 5.7-4.4 8.2c-1.3 2.5-3.6 7.4-5.3 11c-1.6 3.6-4.3 9.9-6 14c-1.8 4.1-4 10-5.1 13c-1.1 3-2.8 7.7-5.6 15.1l-5-5.3c-2.8-2.9-5.6-6.7-6.2-8.3c-0.6-1.6-2.4-7.5-7.1-23l3.8-9c2-4.9 6.5-15.1 10-22.5c3.4-7.4 8-17 10.2-21.3c2.2-4.2 4.4-7.7 4.9-7.7zm-15.5 298c0.2 0.3 0.9 2.3 1.4 4.5c0.6 2.2 2 8.5 3.1 14c1.1 5.5 2.3 10.5 2.8 11c0.5 0.5 1.8 3.9 3 7.5c1.2 3.6 3.6 9.9 5.3 14c1.6 4.1 6 13.5 16.3 34.2l-3.2 2.7c-1.7 1.4-4.4 5.1-5.9 8.1c-2.3 4.5-2.9 7.3-3.9 24.5l-4.7-8c-2.6-4.4-6.1-11.1-7.9-15c-1.7-3.9-6-13.2-9.5-20.8c-3.5-7.5-6.9-15.6-7.5-17.9c-0.9-3.5-0.8-5.9 0.6-12.8c1-4.7 2.1-12.1 2.5-16.5c0.4-4.4 1.6-10.5 2.7-13.5c1.1-3 2.6-8 3.2-11c0.7-3 1.4-5.3 1.7-5z"/>
		<path id="Path 15" class="s15" d="m580.7 94.3l8.9 1.9c4.9 1 14.3 3.5 32.9 9.4l-0.3 7c-0.1 3.8-0.7 7.4-1.2 7.9c-0.6 0.5-1.6 5.4-2.2 10.8c-0.7 5.3-1.8 9.7-2.3 9.7c-0.5 0-2.6-0.8-4.5-1.9c-1.9-1-7.3-2.6-12-3.5c-4.7-0.9-11.6-2.4-22.3-5.1l0.7-9c0.3-5 0.9-12.2 1.2-16c0.3-3.8 0.6-7.9 0.8-9.1zm41.6 762.7c0.4 0 0.7 2.4 0.7 5.2c0 2.9 0.8 7.8 1.6 10.8c0.9 3 2.3 7.2 4.4 13l-15.2 4.9c-8.4 2.7-16.6 5.3-18.3 5.6c-1.6 0.4-4.6 1-6.5 1.3c-2.5 0.4-3.3 0.2-2.7-0.6c0.4-0.7 0.3-1.4-0.3-1.7c-0.5-0.3-1-2.2-1-4.3c0-2-0.4-5.3-0.9-7.2c-0.5-1.9-1.1-5.8-2-13.5l6.2-2.2c3.4-1.2 9.6-3.1 13.7-4.2c4.1-1.1 10.2-3.1 13.5-4.5c3.3-1.4 6.4-2.6 6.8-2.6z"/>
		<path id="Path 16" class="s16" d="m752.3 177.2l7.5 6.2c4.2 3.3 10 8.4 18.4 16.1l-1.8 5.2c-1.1 2.8-2.2 5-2.6 4.7c-0.5-0.2-2.1 4.7-3.8 10.9c-1.6 6.1-3 11.9-3 12.7c0 0.8-0.5 2.3-1.2 3.4c-1.2 1.7-2.3 0.9-25.8-21.9l1.9-9c1-4.9 2.5-10.9 3.2-13.2c0.8-2.5 1.7-3.8 2-3c0.4 0.6 1.7-1.8 2.9-5.4zm2.4 595c0.1 0.2 0.5 2 0.8 4.2c0.4 2.2 0.8 4.6 1.1 5.3c0.2 0.7 1.1 1.2 1.9 1.2c1.1 0 1.5-1.1 1.5-4c0-2.8 0.5-4 1.5-4c0.9 0 1.5-0.6 1.5-1.5c0-0.8 0.5-1.5 1-1.5c0.7 0 1.2 5.6 1.4 14.3c0.1 7.8 0.6 15.1 1 16.2c0.7 1.7-0.5 3.1-7 8.3c-6.6 5.2-8 5.9-8.5 4.5c-0.4-1-1.2-3.8-2-6.3c-1.2-4-1.4-4.2-1.9-2c-0.4 2-0.8 1.3-1.9-3.5c-0.7-3.3-1.8-7.8-2.4-10c-0.6-2.2-1-4.5-0.9-5.2c0.1-0.7-0.3-1.2-1-1.2c-0.7 0 2.1-3.4 6.2-7.5c4-4.1 7.5-7.4 7.7-7.3zm14.6 11.7c0.7 0 1.9 2 2.7 4.5c0.9 2.6 1.9 4.6 2.3 4.6c0.4 0 1 0.8 1.2 1.9c0.4 1.4-0.3 2.7-5 6.2l-1.1-4.8c-0.7-2.7-1.2-6.5-1.3-8.6c0-2.4 0.4-3.8 1.2-3.8z"/>
		<path id="Path 17" class="s17" d="m778.3 200c0.1-0.1 2.2 1.8 4.6 4.2c2.4 2.4 7.1 7.5 10.4 11.3c3.4 3.8 6.8 7.8 7.6 8.8c1.5 1.6 1.4 1.8-0.2 3c-0.9 0.6-3.1 4.6-4.8 8.7c-2.4 5.7-3.3 9.9-3.9 17.5c-0.4 5.5-1.1 10.8-1.4 11.8c-0.5 1.4-1.4 0.7-4.8-3.6c-2.3-2.8-8-9.4-12.5-14.5c-7.7-8.6-8.2-9.4-7.3-12c0.6-1.5 2.4-8 4-14.5c1.7-6.4 3.3-11.5 3.8-11.3c0.4 0.3 1.5-1.8 2.5-4.5c1-2.7 1.9-4.9 2-4.9zm13.9 531l1.8 7.3c1 3.9 2.9 11.3 4.1 16.2c2.1 8.3 2.3 8.7 2.8 5.4c0.3-2 0.8-4 1.1-4.3c0.3-0.4 1.5 0.9 5 6.4l-2.2 2.9c-1.3 1.6-4.5 5.5-7.3 8.7c-2.7 3.3-8.6 9.6-13 14.2c-4.4 4.5-8.3 8.2-8.7 8.2c-0.5 0-0.8-0.7-0.8-1.5c0-0.8-0.3-1.5-0.7-1.5c-0.5 0-1.5-2-2.3-4.5c-0.8-2.5-2.1-4.5-2.7-4.5c-0.7 0-1.3 1.2-1.3 2.8c0 1.5 0.5 5.2 1.2 8.4c1.1 4.8 1.1 5.9-0.2 7.3c-1.4 1.5-1.6 1.5-2.7-0.7c-0.8-1.5-1.2-7.3-1.3-16c0-8.5-0.4-13.8-1-13.8c-0.5 0-1 0.7-1 1.5c0 0.8-0.7 1.5-1.5 1.5c-1.1 0-1.5 1.1-1.5 4c0 2.9-0.4 4-1.5 4c-0.8 0-1.7-0.3-1.9-0.7c-0.2-0.5-0.7-3-1.6-10.8l12.7-12.5c7.1-6.9 15.4-16 18.6-20.3z"/>
		<path id="Path 18" class="s18" d="m718.4 152.2l8.1 5.5c4.4 3.1 11.7 8.5 16.3 12c4.5 3.4 8.5 6.9 8.8 7.6c0.3 0.6-0.4 3.9-1.6 7.2c-1.3 3.3-2.5 5.4-2.9 4.8c-0.3-0.7-1.3 1.1-2.3 4c-0.9 2.8-1.9 7-2.3 9.2c-0.3 2.2-1 5.7-2.5 11.5l-8.2-7.3c-4.6-4-11.3-9.6-21.8-17.7l0.5-6.2c0.4-3.5 2.2-11.8 4.3-18.5zm22.1 634.9c0.5 0 1.1 0.8 1.2 1.7c0.1 1 0.8 4.7 1.7 8.3c0.8 3.5 1.9 7.8 2.4 9.5c0.9 2.8 1 2.8 1.1 0.5c0.1-2.5 0.1-2.5 1.4 0.5c0.7 1.6 1.6 4.5 2 6.5c0.6 2.9 0.3 3.8-1.6 5.3c-1.2 1-6.3 4.9-11.3 8.7c-4.9 3.8-9.5 6.9-10.2 6.9c-0.8 0.1-1-0.6-0.7-1.7c0.4-0.9-0.8-5.8-2.4-10.7c-1.8-5.1-3.1-11-3.1-13.5c0.1-2.5 0.4-5.3 0.8-6.3c0.3-0.9 4.5-4.8 9.1-8.7c4.7-3.8 9-7 9.6-7z"/>
		<path id="Path 19" class="s19" d="m851.4 295.3c0.6 0.2 6.2 10.4 12.4 22.8c6.2 12.3 11.1 23.3 10.9 24.4c-0.1 1.1-0.7 1.9-1.2 1.8c-0.6-0.1-2.4 2.1-4.2 5c-1.7 2.9-3.6 7.6-4.2 10.4c-0.6 2.9-1.1 9.5-1.1 14.5c0 5.1-0.9 15.4-2 22.8c-1.1 7.4-2.2 13.7-2.4 14c-0.3 0.3-1-2.6-1.7-6.5c-0.6-3.9-2.1-9.5-3.2-12.5c-1.1-3-2.6-7.5-3.3-10c-0.7-2.5-3.1-9.2-5.4-15c-2.3-5.8-5.7-15.1-7.6-20.8c-2.7-8.1-3.2-10.7-2.4-12.7c0.5-1.4 1-4.9 1-7.8c0-3 1.3-9.3 3.1-15.2c1.7-5.5 3.8-10.9 5.9-14v2c0.1 1.8 0.3 1.7 2.2-0.8c1.1-1.5 2.6-2.6 3.2-2.4zm10.6 284.5l0.9 3.3c0.4 1.9 0.9 2.9 1.1 2.4c0.1-0.5 0.8 2.1 1.6 6c0.8 3.9 2.3 12.2 3.5 18.5c1.1 6.3 2.6 13.7 3.4 16.5c0.7 2.7 2.3 7.7 3.6 11c2 5.3 2.1 6.4 0.9 9.5c-0.7 1.9-3.9 9.1-7.1 16c-3.2 6.9-7.2 15.1-8.9 18.2c-2.6 5-3.2 5.6-4.5 4.5c-1.4-1-1.6-0.8-1.5 5.3l-2.8-2.8c-1.6-1.5-3.6-4.1-4.4-5.7c-0.9-1.6-2.8-7.3-4.3-12.5c-1.5-5.2-3.3-10.7-4.1-12.3c-1.2-2.3-1.2-3.3 0-7c0.8-2.3 3.3-9.2 5.6-15.2c2.2-6 5.7-15.7 7.6-21.5c1.9-5.8 4.3-13.9 5.3-18c1.1-4.1 2.4-9.5 3-11.9z"/>
		<path id="Path 20" class="s20" d="m170.2 247c0.4 0 0.8 1 0.8 2.3c-0.1 1.3 1.7 6.5 4 11.5c2.6 5.9 5.3 10.4 11.1 15.7l-4.7 6.5c-2.7 3.6-5.3 7.4-5.8 8.5c-0.6 1.1-4.7 8.4-9.1 16.3c-4.4 7.8-8.6 14.2-9.2 14.2c-0.7 0-1.5-0.4-1.8-1c-0.3-0.6-1.4-1-2.5-1c-1.5 0-2.8-1.7-5-6.2c-1.6-3.5-3.4-8.7-4-11.5c-0.5-2.9-1.7-6.9-2.5-8.8c-1.4-3.3-1.4-3.7 1.1-7.7c1.5-2.4 8.1-12.1 14.7-21.5c6.6-9.5 12.4-17.3 12.9-17.3zm-13.7 427.3c0.1 0.1 3.8 6.7 8.2 14.7c4.4 8 9 16.3 10.3 18.5c1.2 2.2 4.1 6.5 10.7 15l-3.1 4c-1.7 2.2-4.7 7.8-6.5 12.5c-1.9 4.7-3.7 9-4.1 9.5c-0.5 0.6-6.9-7.7-27.9-38l-0.1-9c0-8 0.3-9.7 3-15.5c1.7-3.6 4.5-7.7 6.2-9.2c1.7-1.4 3.2-2.6 3.3-2.5z"/>
		<path id="Path 21" class="s21" d="m827.1 257c0.5 0 3.3 3.7 6.2 8.3c3 4.5 8.1 12.8 17.7 28.7l-2.3 3.1c-1.8 2.6-2.3 2.8-2.5 1.2c-0.3-1.7-0.4-1.7-1.6 0.2c-0.8 1.1-2.8 6.5-4.5 12c-1.8 5.7-3.1 12.1-3.1 15c0 2.8-0.4 6.5-2 11.5l-5.8-11.3c-3.1-6.1-8.1-14.7-11-18.9c-2.8-4.3-5.2-8.7-5.2-9.8c0-1.1 0.5-3.2 1.1-4.8c0.5-1.5 1.7-7 2.5-12.2c0.9-5.2 2.5-11.3 3.6-13.5c1.1-2.2 2.9-5.2 4-6.8c1-1.5 2.3-2.7 2.9-2.7zm11.2 398.5l1.3 2.5c0.7 1.4 2.4 6.8 3.9 12c1.5 5.2 3.4 10.9 4.3 12.5c0.8 1.6 2.8 4.2 7.2 8.5v-3.3c-0.1-2.8 0.1-3 1.5-2c1.3 1.2 1.1 2-1.7 7c-1.7 3.2-6.9 12.2-11.5 20c-4.5 7.9-8.8 14.5-9.3 14.8c-0.5 0.3-2.1-0.2-3.5-1c-1.9-1.1-2.5-1.2-2.5-0.3c0 0.8-0.8 0.5-2-0.7c-1.1-1.1-3.1-5-4.5-8.8c-1.4-3.7-2.5-7.8-2.5-9.2c0-1.4-0.9-4.1-4-9.5l3.9-6.8c2.1-3.7 5.5-9.6 7.6-13.2c2-3.6 4.3-8.1 5.2-10c0.8-1.9 2.7-5.5 4.1-8z"/>
		<path id="Path 22" class="s22" d="m240 175.9c0.4 0.3 1.7 4.4 2.9 9.1c1.2 4.7 3.5 11.4 5.2 15c1.6 3.6 3 6.7 3 7c0 0.3-5.1 5-11.3 10.6c-6.2 5.5-14.7 13.5-18.8 17.7c-4.1 4.2-7.8 7.7-8.2 7.7c-0.5 0-1.9-1.7-3.3-3.8c-1.4-2-4.5-8.6-11.5-25.7l8.8-9c4.8-4.9 12.1-12.1 16.2-15.8c4.1-3.7 9.5-8.3 12-10.1c2.4-1.8 4.7-3.1 5-2.7zm-26.5 579.9l3.6 4.4c2 2.3 10.4 10.4 18.5 17.9c8.2 7.6 16.2 14.8 20.9 18.6l-2.2 3.4c-2.2 3.3-2.3 3.3-2.3 0.9c0-1.9-0.6-1.3-2.7 3c-1.4 3-3.3 8.1-5.8 17l-8.5-6.2c-4.7-3.4-14.3-11.9-21.3-18.8c-7-6.9-12.8-13-12.7-13.5c0-0.5 1.3-3.9 2.9-7.3c1.6-3.5 2.9-7 2.8-7.8c0-0.7 1.5-3.7 3.4-6.5z"/>
		<path id="Path 23" class="s23" d="m806.5 230.2c2.1 2.4 5.8 6.6 8 9.3c2.3 2.8 6 7.6 12.5 16.5l-2.4 3.3c-1.3 1.7-3.3 5-4.4 7.2c-1.1 2.2-2.7 8.3-3.6 13.5c-0.9 5.2-2.2 11.4-4.1 17.8l-3.5-5.2c-1.9-2.8-7-9.6-11.3-15.1c-5.7-7.4-7.6-10.5-7.2-12c0.4-1.1 1-6.5 1.5-12c0.6-7.5 1.6-11.9 3.9-17.5c1.7-4.1 3.9-8.1 4.8-8.8c1.6-1.1 2.3-0.7 5.8 3zm8.8 468.8c0.6 0 1.7 1.4 2.4 3c0.7 1.6 1.3 4.1 1.3 5.5c0 1.4 1.1 5.5 2.5 9.3c1.4 3.7 3.4 7.6 4.5 8.7c1.2 1.2 2 1.5 2 0.7c0-0.8 0.9-0.7 5.9 2.3l-4.7 6.5c-2.5 3.6-7.8 10.5-11.8 15.5c-3.9 5-7.9 9.6-8.8 10.3c-1.4 1-1.9 0.7-3.8-2.3c-1.3-2-2.5-3.3-2.8-2.9c-0.3 0.3-0.8 2.3-1.1 4.3c-0.5 3.4-0.7 3-2.7-4.9c-1.1-4.7-2.8-11.2-3.6-14.5c-0.9-3.3-1.6-7.1-1.6-8.5c0.1-1.4 2.4-5.7 5.5-10c3-4.1 7.8-11 10.6-15.3c2.8-4.2 5.6-7.7 6.2-7.7z"/>
		<path id="Path 24" class="s24" d="m197.9 214.4c0.3 0.2 2.4 4.8 4.6 10.2c2.1 5.5 5.4 12 10.5 19.4l-7.2 8.2c-3.9 4.6-9.9 11.8-13.2 16.1c-3.4 4.3-6.3 7.7-6.6 7.7c-0.3 0-2-1.4-3.8-3c-1.8-1.8-4.7-6.5-6.8-11.3c-2-4.5-4-10-4.4-12.2c-0.7-3.7-0.4-4.4 4.3-10.5c2.8-3.6 8.8-10.6 13.5-15.7c4.6-5.1 8.7-9.1 9.1-8.9zm-12.4 508.6c0.3 0 2.6 2.8 5.2 6.2c2.6 3.5 8.7 10.9 22.3 26.8l-3 5c-1.7 2.7-3 5.6-3 6.2c0 0.7-1.4 4.6-6.5 15.8l-10-10.8c-5.5-6-12-13.4-19-22.3l3.7-9.2c2.1-5.1 5.1-11.1 6.8-13.5c1.6-2.3 3.2-4.2 3.5-4.2z"/>
		<path id="Path 25" class="s0" d="m496.5 210.7c2.8 0.2 7.3 1.3 10 2.4c2.8 1 7.6 3.9 10.8 6.4c3.1 2.5 6.8 6.3 8.2 8.5c1.4 2.2 3.4 6.8 4.6 10.3c1.6 4.8 2 7.9 1.7 13.7c-0.3 5.4-1.3 9.4-3.3 14c-2.5 5.6-5.3 8.9-20.9 24.8c-10 10-18.5 18.2-19.1 18.2c-0.6 0-2.6-2.1-4.6-4.7c-2-2.7-4.4-6.3-5.3-8c-0.9-1.8-1.6-4-1.6-4.8c0-0.8 5.3-6.4 11.8-12.4c6.4-6 13.5-13.5 15.7-16.7c3.9-5.6 4-6.1 3.8-13.3c-0.1-7.5-0.1-7.6-4.2-11.3c-4.1-3.8-4.2-3.8-11.6-3.5c-5.9 0.1-7.8-0.1-8.5-1.3c-0.5-0.8-1.8-4.2-2.9-7.5c-1.1-3.3-2.2-7.2-2.5-8.7c-0.6-2.6-0.3-2.9 4.1-4.2c2.7-0.8 5.7-1.7 6.8-2c1.1-0.2 4.3-0.2 7 0.1zm-8 174.3c0.8 0 8.3 7.1 16.5 15.8c12 12.5 15.8 17.2 18.8 23.1c3.6 7.2 3.7 7.7 3.7 18.5c0 10.5-0.2 11.5-3.3 17.9c-2.6 5.5-4.3 7.5-9.5 11.3c-3.4 2.6-8.7 5.8-11.7 7.2c-3 1.3-8.3 2.7-11.6 3.1c-4.7 0.5-6.5 0.3-7.8-0.9c-0.9-0.8-1.7-2.6-1.7-4c0.1-1.4 0.9-6 3.6-18h3.5c1.9 0 5.5-0.7 8-1.5c3.6-1.2 4.9-2.4 6.7-5.8c1.3-2.3 2.6-5.6 2.9-7.2c0.5-2.2-0.2-4.7-2.7-9.7c-2.1-4.2-6.1-9.4-10.5-14c-3.9-4-9.2-9.7-11.7-12.6c-3.7-4-4.6-5.7-4.1-7.5c0.4-1.2 2.1-4.2 3.8-6.6c1.7-2.3 3.7-5.4 4.4-6.7c0.7-1.3 1.9-2.4 2.7-2.4zm2.3 201.3c0.8 0.7 3.4 4.3 5.8 8.2c2.3 3.9 6.5 11.7 9.3 17.5c2.7 5.8 5.9 13.4 7.1 17c1.1 3.6 2.7 10.5 3.5 15.5c0.9 5.4 1.5 15.9 1.5 26.2c0 12.9-0.5 19.8-1.9 27c-1.1 5.4-3 12.7-4.4 16.3c-1.3 3.6-4.1 9.9-6.2 14c-2.1 4.1-5.6 10.3-12 19.8l-3.2-4.1c-1.8-2.3-3.3-4.7-3.4-5.2c-0.1-0.5-0.4 0.1-0.8 1.5c-0.6 2.3-0.9 2-3.3-3.5c-1.5-3.3-3.3-8.6-4-11.7c-1.2-5.3-1.2-5.9 0.8-8.5c1.1-1.5 3.3-6.8 4.9-11.8c1.5-5 3.4-11.7 4.1-15c0.7-3.3 1.7-11.4 2-18c0.4-7.4 0.2-15.4-0.5-21c-0.7-5-2.5-13-4.2-18c-1.6-5-2.9-9.5-2.9-10c0-0.5-1.4-3.1-3-5.8c-1.7-2.6-3-6.1-3-8c0-1.7 0.7-5.2 1.5-7.7c0.9-2.5 3.7-7.1 6.2-10.2c3.8-4.7 4.9-5.5 6.1-4.5z"/>
		<path id="Path 26" class="s1" d="m477.4 215.3c0.5 0.1 1.5 2.7 2.3 5.7c0.8 3 2.3 7.5 3.5 9.9c1.1 2.4 2 4.5 1.9 4.7c-0.1 0.2-2.2 1.9-4.8 3.6c-2.7 1.8-11.2 9.5-19 17c-7.9 7.6-14.7 13.8-15.3 13.8c-0.5 0-2.2-1.5-3.6-3.3c-1.5-1.7-3.9-5.7-8.2-14.2l9.1-9.7c5.1-5.3 12.4-12.3 16.2-15.6c3.9-3.2 9.3-7.3 12-9c2.8-1.7 5.4-3.1 5.9-2.9zm-1.3 75.7l2.9 5.8c1.6 3.1 4.4 7.3 9.5 13l-12.7 13.1c-7.1 7.2-13.7 14.6-14.8 16.3c-1.3 2.1-2 5.1-2 8c0 2.7 0.6 5.4 1.3 6c0.6 0.7 2.5 3.1 4.2 5.3c1.6 2.2 7.9 9.1 14 15.3c6 6.2 10.4 11.2 9.8 11.2c-0.7 0-1.6 0.8-2 1.7c-0.4 1-2.2 3.8-4.1 6.3c-1.9 2.5-3.9 5.6-4.4 7c-0.9 2.4-1.6 1.8-18.2-15c-14.6-14.8-17.8-18.6-20.7-24.5c-2.2-4.5-3.5-8.9-3.8-12.5c-0.2-3 0.1-7.1 0.7-9c0.6-1.9 2.9-6.2 5-9.5c2.1-3.3 10.9-13.3 19.6-22.2zm-26.6 138c0.5 0 5 4.3 10 9.6c4.9 5.3 11.9 11.8 15.5 14.5c3.5 2.7 7.3 4.9 8.2 4.9c1.1-0.1 1.8 0.7 1.8 1.9c0 1.1-0.8 4.8-1.6 8.3c-0.9 3.4-1.5 7.7-1.3 9.5c0.3 3 0.1 3.3-1.9 2.8c-1.2-0.3-4.4-1.6-7-2.8c-2.6-1.2-7.2-3.8-10.2-5.8c-3.1-2-10.6-9-27.9-27.5l2.2-3c1.2-1.6 4.2-5.1 6.7-7.7c2.4-2.6 4.9-4.8 5.5-4.7zm-2.7 120c0.4 0 2.7 1.2 5.2 2.6c2.4 1.4 6.7 4.2 9.5 6.2c2.7 1.9 8.3 6.3 12.3 9.6c4.1 3.3 9.3 8.5 16 17l-4.5 5.5c-2.5 3.1-5.2 7.1-6 9c-0.9 2-1.8 5.2-2.8 11.1l-6-7.7c-3.3-4.2-8.7-10.2-12-13.2c-3.3-3.1-9.1-7.9-12.8-10.7c-5.8-4.3-6.7-5.3-6.3-7.5c0.3-1.3 1.7-4.8 3.1-7.7c1.3-2.9 2.7-7.3 3.1-9.8c0.3-2.4 0.9-4.5 1.2-4.4zm30.1 171.3l2.3 7c1.3 3.9 3.3 8.9 4.5 11.1c1.8 3.3 2.2 3.6 2.2 1.8c0.1-1.9 0.6-1.6 3.6 2.2c1.9 2.5 3.5 4.9 3.5 5.3c-0.1 0.4-2.4 3.5-5.3 6.8c-2.9 3.3-7.3 7.9-9.7 10.1c-2.5 2.2-6.6 5.6-9 7.5c-2.5 2-8.2 5.9-12.8 8.7c-4.5 2.8-8.5 5.1-8.7 5.1c-0.3 0-0.8-1.7-1.1-3.7c-0.3-2.1-1.5-6-2.7-8.8c-1.1-2.7-2.6-7-4.5-14l6.5-4.5c3.5-2.4 10.1-8.3 14.6-13c4.6-4.6 10.1-11.4 12.4-15.1z"/>
		<path id="Path 27" class="s3" d="m275.9 218.4c0.3 0.5 0.9 2.9 1.4 5.5c0.4 2.5 1.1 7.3 1.6 10.6c0.6 3.3 1.7 8.2 2.6 11c0.8 2.7 1.5 6.6 1.5 8.5c0 1.9-0.7 5.7-1.6 8.5c-0.9 2.7-1.9 9.5-2.9 25l-6.8-8c-3.7-4.4-7.7-9.8-8.8-12c-1-2.2-2.4-7.1-3.1-11c-0.8-5.3-0.8-8.5 0.1-13.5c0.6-3.6 2.5-8.9 4.1-11.8c1.7-2.8 4.9-7.1 7.2-9.4c2.3-2.3 4.4-3.8 4.7-3.4zm2.6 185.2l0.5 4.9c0.3 2.8 1.7 7 3.1 9.5c1.4 2.5 3.9 5.5 8.4 8.7l-3.3 4.9c-1.8 2.8-3.5 6.8-3.8 9.4c-0.5 3.4-0.2 5.3 3.2 11.5l-3.8 8.5c-2.1 4.8-3.8 10.1-3.8 12.3c0 2-0.2 3.7-0.5 3.7c-0.3 0-2.4-1.3-4.7-2.8c-2.4-1.6-5.8-5.1-7.6-7.8c-1.8-2.7-4.2-7.4-5.4-10.4c-1.5-4-2.1-7.8-2.1-14c0-6.1 0.5-9.9 1.9-13.5c1.1-2.7 3.4-7 5.1-9.5c1.7-2.5 5.2-7 7.9-10zm0 189l0.5 6.5c0.4 5.2 1.3 7.7 4.3 12.7c2 3.5 4.3 6.2 5 6.2c0.7 0 1.8 0.6 2.5 1.3c1 1 0.9 2.1-0.1 5.3c-0.8 2.2-2.3 6-3.5 8.5c-1.1 2.4-2.6 8.3-3.2 13c-0.7 4.6-1.3 13.6-1.3 20c0.1 6.3 0.8 16 1.6 21.5c0.9 5.5 2.5 12.1 3.7 14.7c1.1 2.6 1.7 5.3 1.3 6c-0.5 0.8-0.9 0.2-1.3-1.7c-0.5-2.9-0.7-2.6-4.7 5.2c-4.1 8-4.3 8.6-4.3 17.5c0 5.1-0.3 9.8-0.7 10.5c-0.5 0.8-2.3-1.3-5-6c-2.3-4-5.6-10.4-7.2-14.2c-1.6-3.9-4-11.1-5.3-16c-2.1-8.3-2.3-11.1-2.2-35.5c0-23.4 0.2-27.6 2.1-35.5c1.1-5 3.5-12.4 5.2-16.5c1.7-4.2 5.2-11.1 7.9-15.5z"/>
		<path id="Path 28" class="s4" d="m794.1 499.5l9.9 1.3c5.5 0.6 11.1 1.2 12.5 1.2c1.4 0 2.5 0.6 2.5 1.3c0 0.6-0.5 3.1-1 5.5c-0.6 2.3-2.2 6.8-3.7 9.9c-1.4 3.2-4.7 7.8-7.2 10.3c-2.5 2.5-7.1 6.4-10.1 8.7c-3 2.3-12.1 8-20.3 12.7c-13.2 7.7-14.9 8.5-17 7.4c-1.2-0.7-2.5-1.1-3-1c-0.4 0.1-0.7-2-0.7-9.8h-3.8c-2.2 0-5-0.9-10-4.5l9.2-5.9c5-3.2 13.8-8.6 19.6-11.9c5.8-3.2 11.7-7 13.2-8.3c1.6-1.3 3.3-2.4 3.8-2.4c0.5 0 1.9-1.5 3-3.2c1.4-2.4 2-5.3 2.2-10.3c0-3.9 0.3-5.6 0.9-1zm-186.1 2.1c0.8 0.1 1.8 0.3 2.2 0.3c0.5 0.1 0.8 11.7 0.7 25.9c0 14.1-0.2 25.1-0.5 24.5c-0.2-0.7-1.1-1.1-1.9-0.8c-0.8 0.3-1.5 0-1.5-0.5c0-0.5-0.8-0.9-1.8-0.8c-0.9 0-3.8 0-6.5 0c-4.3-0.2-4.7-0.4-4.7-2.7c0-2.1-0.5-2.5-6-2.5v-43l6.7 0.6c3.8 0.3 7.9 0.1 9.3-0.4c1.4-0.5 3.2-0.8 4-0.6zm129.4 43.4l0.4 2.2c0.2 1.3-0.1 2.7-0.5 3.1c-0.4 0.5-2.4 0.5-7.8-0.5l4-2.4zm17 16.2q1 0.9-1.5 2.8c-1.3 1.1-3.3 2.2-4.2 2.5c-1.3 0.4-1.8 0-1.8-1.5c0-1.1 0.4-1.9 0.8-1.9c0.4 0.1 1.5 0.1 2.5 0c0.9 0 1.5-0.5 1.2-1.1c-0.2-0.5 0.1-1.2 0.7-1.3c0.7-0.2 1.7 0 2.3 0.5z"/>
		<path id="Path 29" class="s6" d="m739.9 441l3.5 1.7c2.8 1.3 3.6 2.3 3.6 4.5c0 2.7 0.2 2.8 5 2.8c4.6 0 5.1-0.3 6.5-3c0.8-1.6 2.1-3 2.8-3c0.6 0 6.8 3.3 13.7 7.2c6.9 3.9 16.5 9.8 21.5 13.2c5 3.3 10.8 8 13 10.2c2.2 2.3 5 6.7 6.3 9.8c1.2 3.1 2.5 8.3 3.7 17.6h-2.7c-1.6 0-7.3-0.6-12.8-1.3c-10-1.2-10-1.2-10-4c0-2-1.7-4.4-6.7-9.5c-3.8-3.7-9-8.1-11.8-9.6c-2.7-1.6-7.9-4.5-11.5-6.4c-3.6-1.9-9-5-17.5-10l0.5-11.2l-4 0.2c-3.2 0.3-3.9 0-3.4-1.2c0.4-0.8 0.6-3 0.5-4.7zm-151.8 12.8l22 0.6v23.8c-0.1 22.1-0.2 23.7-1.9 23.4c-0.9-0.2-2.8 0-4.2 0.6c-1.4 0.5-5.5 0.6-16-0.3l0.1-24z"/>
		<path id="Path 30" class="s7" d="m330 221c0.6 0 4 2.8 7.6 6.3c3.7 3.4 9.3 9.5 18.4 20.7l-2.5 2.3c-1.4 1.2-4.4 5.6-11 17.5l-22-21.7l1.7-4.3c0.9-2.4 2.8-7.3 4.2-11.1c1.4-3.7 2.6-7.4 2.6-8.2c0-0.8 0.4-1.5 1-1.5zm0.4 83.5l7.9 8.5c4.3 4.7 9.1 10.3 10.5 12.4c1.5 2.1 3.5 5.3 4.4 7c1 1.7 2.5 5.6 3.4 8.6c1 3.5 1.4 6.7 0.9 9c-0.4 1.9-1.8 5.9-3.1 8.8c-1.6 3.4-5.7 8.6-12.1 15.2c-5.4 5.6-10.1 10.1-10.5 10c-0.5 0-2.4-2.5-4.3-5.5c-1.9-3-3.5-6.1-3.5-6.8c0-0.6-1.1-2.6-4.7-7.2l5.1-6c2.8-3.3 6-7.7 9.1-13.4l-3.4-4.8c-1.9-2.6-5.4-6.8-12.3-13.8l3.1-4.5c1.8-2.5 3-4.8 2.9-5.3c-0.1-0.4 1.3-3.3 3.2-6.5zm12.3 118.5c0.1 0 1.9 2.6 3.9 5.8c2 3.1 3.9 6 4.3 6.2c0.3 0.3 1.5 1.5 4.6 5l-7.1 7.8c-3.9 4.2-9.3 10-16.8 17.7l-1.3-4c-0.7-2.2-2.4-5.7-3.8-7.7c-1.4-2.1-2.5-4.4-2.5-5.3c0-0.8-0.6-2.6-1.3-4c-1.1-2.5-0.9-2.9 3.3-6.8c2.5-2.3 7.2-6.5 10.5-9.4c3.2-2.9 6-5.3 6.2-5.3zm4.3 117.3c0.9 0.2 1.6 1.6 1.8 3.7c0.1 2 1.1 7.4 2.2 12c1.1 4.7 2 9.1 2 9.8c0 0.7-2.2 1.8-4.8 2.6c-2.6 0.8-7.5 2.8-11 4.5c-3.4 1.7-6.6 2.9-7 2.5c-0.4-0.3-1.8-3.1-3.1-6.2c-1.2-3.1-2.7-7.2-3.3-9.2c-0.5-1.9-1.2-4.7-1.4-6.2c-0.4-2.5 0.1-3 5.8-5.9c3.5-1.8 8.8-4.2 11.8-5.5c3-1.3 6.2-2.2 7-2.1zm-16.8 216.9l4.6 2.4c2.6 1.3 7.6 3.6 11.2 5.1c3.6 1.5 6.8 2.9 7.2 3.3c0.4 0.3-0.2 4.8-1.3 10c-1.1 5.3-1.9 11.2-1.9 13.3c0 2-0.5 3.7-1 3.7c-0.6 0-4.5-1.4-8.8-3c-4.2-1.7-9.9-4.3-12.5-5.8c-4.7-2.6-4.7-2.7-4.1-6.7c0.4-2.2 1.5-5.5 2.5-7.5c1.1-1.9 2.4-6 3-9.1z"/>
		<path id="Path 31" class="s8" d="m302.3 207.8l4.1 0.7c2.2 0.4 6.3 1.7 9.1 2.9c2.7 1.2 7.1 3.7 14.5 8.6l-1.1 3.7c-0.6 2.1-2 6-3.1 8.8c-1.1 2.7-2.7 6.8-3.6 9c-0.9 2.2-1.7 4.2-1.9 4.5c-0.1 0.3-1.7-0.7-3.5-2.1c-1.8-1.4-5.7-3.7-8.5-5c-4.4-2-5.4-2.9-5.8-5.4c-0.2-1.7-0.7-6.4-1.1-10.5c-0.4-4.1-0.3-9.2 0.1-11.3zm7.9 75.4c0.4 0.1 5 4.8 10.2 10.5c5.3 5.6 9.6 10.5 9.6 10.7c0 0.3-2 4.5-4.5 9.3c-2.5 4.8-5.3 9.5-6.3 10.6c-1.6 1.7-2.1 1.3-11.9-8.5c-7.6-7.7-10.3-11-10.2-12.9c0-1.3 1.6-5.8 3.7-9.8c2.2-4.4 4.8-7.9 6.2-8.7c1.4-0.8 2.8-1.3 3.2-1.2zm9.1 81.8c0.4-0.1 1.6 1.3 2.7 2.9c1.1 1.7 2 3.5 2 4c0 0.6 1.8 3.7 8 13l-20.5 18.9l-3.5-2.5c-1.9-1.4-4.2-3.7-5.2-5.2c-0.9-1.5-2.4-4.7-5-11.7l10.4-9.7c5.7-5.3 10.7-9.7 11.1-9.7zm3.3 79.3c0.8 1.2 1.4 2.8 1.4 3.6c0 0.9 1.6 4.2 3.5 7.5c2.1 3.6 3.5 7 3.3 8.5c-0.2 1.6-2.3 4.1-6.3 7.3c-3.3 2.7-8.1 6-10.7 7.3c-2.6 1.3-5.2 2.4-5.8 2.4c-0.5 0-1-0.8-1-1.7c0-1.5-0.1-1.5-0.9-0.3c-0.7 1.2-1 1-1.4-1c-0.4-1.3-1-6.9-1.4-12.2c-0.5-6.4-0.4-9.8 0.2-9.8c0.6 0 2.3-1 3.9-2.2c1.7-1.3 5.4-4.3 8.4-6.9c5.4-4.5 5.5-4.6 6.8-2.5zm-1.3 107.7c0.5-0.1 1.3 2.1 1.9 4.7c0.5 2.6 2.1 7.4 3.5 10.7c1.3 3.3 2.8 6.7 3.2 7.5c0.6 1.1-1.1 3-6.3 7.1c-3.9 3.1-8 6.6-9.1 7.8c-1.1 1.2-2.4 2.2-3 2.2c-0.5 0-2.6-1.7-4.5-3.8c-2-2.1-4.6-6.4-5.8-9.5c-1.2-3.2-2.2-6.7-2.2-7.8c0-1.2 2.7-4.3 6.8-8c3.7-3.3 8.5-7.1 10.7-8.4c2.2-1.4 4.4-2.5 4.8-2.5zm-9.8 189.9c0.3 0 3.8 2.8 7.8 6.3c4.1 3.4 8.2 6.7 9.3 7.3c1.8 1.1 1.8 1.5 0.7 7c-0.7 3.3-2.2 7.6-3.3 9.7c-1.1 2-2 4.7-2 6c0 1.2-0.4 2.9-0.9 3.7c-0.7 1.3-1.4 1.2-4.7-0.9c-2.1-1.4-5.9-4.1-8.3-6c-2.4-2-5.7-4.7-7.2-6.1c-2.1-1.8-2.5-2.9-1.8-4c0.5-0.8 0.9-2.8 1-4.5c0-1.6 1.1-5.4 2.4-8.5c1.3-3 3.3-6.5 4.4-7.7c1.1-1.3 2.2-2.3 2.6-2.3z"/>
		<path id="Path 32" class="s9" d="m299.8 208.1c2.1-0.1 2.2 0.2 1.6 5.2c-0.3 2.8-0.1 9.3 0.5 14.2c0.6 4.9 1.7 9.3 2.4 9.7c0.7 0.4-0.3 0.8-2.3 0.8c-2.1 0.1-4.6 1-6.2 2.3c-1.6 1.3-3.2 4.1-4 7c-1.1 3.9-1.1 5.5 0 9.5c0.8 2.6 2.8 6.7 4.5 9.2c1.7 2.5 5.5 7.3 13.7 17l-2.8 1.4c-1.8 0.9-4 3.9-6.4 8.7c-2.1 4.1-3.8 8.5-3.8 9.9c0 2.2-1.1 1.4-18-15.5v-8.5q0-8.5 2-14.7c1.1-3.5 2-8 2-10c0-2.1-0.7-6-1.5-8.8c-0.9-2.7-2-7.7-2.5-11c-0.6-3.3-1.4-8.5-2-11.5c-0.8-4.8-0.8-5.7 0.8-6.8c0.9-0.8 3.4-2.2 5.4-3.3c2.1-1 6.2-2.5 9-3.3c2.9-0.8 6.3-1.5 7.5-1.5zm-2.3 176.9l3.2 6.8c2.3 4.7 4.4 7.6 11.5 12.7l-5.3 5.5c-2.9 3-7.8 8.1-16.3 16.9l-2.8-1.9c-1.5-1.1-4-4.4-5.7-7.2c-1.8-3.3-3.1-7-3.2-9.8c-0.3-4.4-0.2-4.6 9.2-13.7zm-10.5 68.2c0.3 0.2 2.4 1.2 4.6 2.2c2.5 1.1 5.3 1.6 11 0.8l0.7 9.6c0.5 5.3 1.1 10.8 1.4 12.2c0.5 2 0.8 2.2 1.5 1c0.7-1.2 0.9-1 0.9 0.7c0 1.9-0.7 2.4-4.8 2.9c-2.6 0.3-6.6 0.3-9 0c-2.3-0.4-6.5-1.6-9.3-2.9c-4.7-2.1-5-2.4-5-6c0.1-2 1.7-7.6 3.7-12.3c2.1-4.7 4-8.4 4.3-8.2zm11.3 116.8l1.7 5.2c1 2.9 2.4 6.6 3.3 8.3c0.8 1.6 3.2 4.4 8.8 9.5l-3.3 3.7c-1.8 2.1-4.9 6-6.8 8.8c-1.9 2.7-4.7 7.1-6.2 9.7c-1.5 2.6-2.8 4.8-3 4.8c-0.1 0-1.6-0.7-3.2-1.5c-1.7-0.9-4.7-4.3-6.8-7.6c-3.4-5.4-3.7-6.6-3.7-12.7c0.1-6.7 0.1-6.8 5.8-13.7c3.1-3.8 7.4-8.7 9.6-10.8zm-10.5 136.3c0.1 1.7 0.7 2.5 1.5 2.2c0.7-0.3 1.5 0.5 2 2.2c0.5 1.6 1.4 3.5 2.1 4.3c0.7 0.9 3 4.5 5.2 8c2.1 3.6 6 9.3 8.6 12.8c4.3 5.5 4.6 6.3 3.1 7.1c-1 0.5-3.1 3.5-4.6 6.7c-1.6 3.3-3.1 7.3-3.3 8.9c-0.3 1.7-0.7 4-1 5.3c-0.2 1.2-0.7 2.2-1.1 2.3c-0.5 0-3.8-3.1-7.5-6.8c-3.7-3.7-8.4-9-14.3-16.6l0.3-11.6c0.4-11.4 0.5-11.7 4.5-19.6c3.6-6.8 4.2-7.6 4.5-5.2z"/>
		<path id="Path 33" class="s10" d="m434 253c0.3 0 1.7 2.5 3.3 5.5c1.5 3 4 7 8.6 12l-12.2 12.2c-6.7 6.7-14.7 14.1-17.7 16.4c-5.2 3.8-5.6 3.9-6.8 2.2c-0.7-1-2.1-4.7-3.2-8.3c-1.1-3.6-2.5-7.7-3-9.2c-0.9-2.6-0.7-3 3.7-6c2.7-1.8 9.7-8.1 15.8-14c6.1-5.9 11.2-10.8 11.5-10.8zm-23.2 138c0.4-0.1 3.6 2.5 7.2 5.6c3.6 3.1 12.1 11.5 31.5 31.7l-5.1 5.1c-2.7 2.8-5.9 6.4-8.9 10.7l-12.5-12.4c-6.9-6.7-14.2-13.6-16.3-15.2c-2.1-1.7-3.7-3.6-3.6-4.3c0.1-0.6 1.5-4.9 3-9.5c1.5-4.5 3-9 3.4-9.9c0.4-1 1-1.8 1.3-1.8zm4.3 145.6c3.5 0.7 8.9 2.2 11.9 3.2c3 1.1 8.6 3.4 19.5 8.3l-0.7 4.7c-0.3 2.6-1.8 7.2-3.2 10.2c-1.4 3-2.8 6.7-3.6 11l-2.8-1.9c-1.5-1-8.9-3.8-30.2-10.6v-4.5c0-2.5 0.5-7.4 1.1-11c0.5-3.6 1.1-7.5 1.3-8.6c0.3-2.1 0.5-2.1 6.7-0.8zm23.8 223.5c1-0.1 1.6 1.2 1.9 3.7c0.2 2 1.4 6 2.6 8.7c1.3 2.8 2.6 7 3 9.5c0.7 4.2 0.5 4.6-2.1 5.9c-1.5 0.7-5.9 2.7-9.8 4.3c-3.9 1.6-10.5 3.8-14.8 4.8c-4.2 1.1-8.4 2-9.2 2c-1.1 0-1.4-0.7-0.9-2.7c0.3-1.6 0.1-5.5-0.5-8.8c-0.5-3.3-1.1-8.5-1.6-17l8.1-2c4.4-1.1 10.5-3.1 13.5-4.4c3-1.3 6.1-2.7 6.9-3.2c0.8-0.4 2.1-0.8 2.9-0.8z"/>
		<path id="Path 34" class="s11" d="m629 375.1c3.6-0.1 9.2 0.6 12.5 1.5c3.3 0.9 8.7 3 12 4.6c3.3 1.7 13.2 7.6 22 13.2c8.8 5.6 18.6 11.6 21.8 13.4c4.6 2.6 5.5 3.4 4.4 4.5c-0.6 0.8-2.1 1.9-3.2 2.5c-1.5 0.9-2.4 0.8-3.7-0.1c-0.9-0.7-1.8-2.7-2.3-7.8l-4.3 3.5c-2.3 2-4.2 4-4.2 4.6c0 0.5-0.9 2.4-4 7l-7.8-4.1c-4.2-2.3-10-5.6-12.7-7.4c-2.8-1.8-7.9-4.8-11.5-6.8c-4.2-2.3-8.9-4-13.3-4.6c-3.7-0.6-7.9-0.8-9.5-0.4c-1.5 0.3-4.2 1.8-6 3.2c-2.1 1.6-4.1 4.6-7.5 13.6l-5.1-0.7c-2.8-0.4-7.8-1.4-17.1-3.4l0.3-4c0.1-2.1 1.7-6.8 3.4-10.4c1.8-3.7 5.4-8.7 8.2-11.5c4.2-4.2 6.6-5.6 13.1-7.8c5.4-1.8 10.1-2.6 14.5-2.6z"/>
		<path id="Path 35" class="s12" d="m355.5 249c0.8 0 2.7 1.5 4.1 3.3c1.5 1.7 4.9 5.7 7.7 8.7c2.8 3 7 7.5 9.4 10c4.2 4.4 4.2 4.5 2.5 6.5c-1 1.1-2.6 3.4-3.4 5c-0.9 1.6-2.9 4.7-7.3 10.4l-26-24.7l3-5.8c1.6-3.2 4.2-7.5 5.8-9.6c1.5-2.1 3.4-3.8 4.2-3.8zm15.7 146c0.5 0 0.8 1.2 0.8 2.7c0 1.6 1.2 4.8 2.7 7.3c1.4 2.5 2.9 4.7 3.3 5c0.3 0.3 1.4 1.5 2.3 2.7c1.7 2.3 1.6 2.4-4 7.1c-3.2 2.7-9.3 8.3-21.3 20.2l-2.5-3c-1.4-1.6-4.1-5.6-9.7-14.5l13.8-13.8c7.6-7.5 14.2-13.7 14.6-13.7zm7.3 139v8.3c0 4.5 0.3 10.4 1.5 18.2l-7.2 0.8c-4 0.5-9.9 1.7-13 2.8c-3.2 1-6 1.9-6.3 1.9c-0.3 0-1.4-4.2-2.4-9.3c-1.1-5-2.2-11.1-3.1-17.7l6.3-1.5c3.4-0.8 8.5-1.9 11.2-2.4c2.8-0.5 6.8-0.9 13-1.1zm-23.7 234c0.4 0 3.4 0.9 6.7 2c3.3 1.2 8.9 2.4 19 3.2v27.8l-3-0.5c-1.6-0.2-5.5-0.7-8.5-1c-3-0.3-8.5-1.3-19-3.5v-4.5c0-2.5 0.7-7.8 1.5-11.8c0.9-3.9 1.8-8.2 2.1-9.4c0.2-1.3 0.8-2.3 1.2-2.3z"/>
		<path id="Path 36" class="s13" d="m381 276c0.3 0 2.4 1.6 4.8 3.5c3.2 2.7 5.1 3.5 8.2 3.5c2.2 0 4.9-0.4 6-1c1.6-0.8 2.2-0.6 2.8 1.3c0.5 1.2 2 5.6 3.4 9.7c1.4 4.1 2.8 8.3 3.1 9.3c0.6 1.4-0.3 2.1-4.8 3.7c-3 1.1-7.6 2-10.3 2c-3.2 0-6.6-0.9-10.7-2.9c-3.3-1.6-7.9-4.8-10.3-7c-2.3-2.3-4.2-4.7-4.2-5.4c-0.1-0.6 0.7-1.9 1.6-2.7c0.9-0.8 2.8-3.5 4.3-6c1.4-2.5 3.2-5.3 4-6.3c0.9-0.9 1.8-1.7 2.1-1.7zm13.5 109.1c2.2 0 6.5 1 9.5 2.2c4.2 1.7 5.5 2.7 5.4 4.2c-0.1 1.1-1.7 6.3-3.5 11.5c-1.8 5.2-3.4 9.7-3.6 10c-0.2 0.3-1.3-0.5-2.6-1.7c-1.3-1.4-3.4-2.3-5.4-2.3c-2.1 0-5 1.2-7.9 3.3c-3.9 2.6-4.8 2.9-5.4 1.7c-0.4-0.8-1.4-2.2-2.2-3c-0.8-0.8-2.6-3.5-4.1-6c-1.5-2.5-2.7-5.9-2.7-7.5c-0.1-2.4 0.7-3.6 4.2-6c2.3-1.6 6.5-3.8 9.2-4.7c2.8-1 6.9-1.7 9.1-1.7zm-15.1 148.6l14.2 0.4c7.8 0.2 14.4 0.6 14.7 0.9c0.3 0.3-0.1 4.3-0.9 9c-0.7 4.7-1.4 10.5-1.4 17.5l-12.8-0.4c-7-0.2-12.8-0.4-12.9-0.5c-0.1 0-0.7-3.5-1.4-7.6c-0.7-4.7-0.8-9.7-0.3-13.4zm26.8 237.4c0.4-0.1 1 0.9 1.2 2.1c0.3 1.3 0.8 5.4 1.2 9.3c0.4 3.8 0.8 8.9 0.8 11.2c0.1 2.3-0.4 4.6-0.9 5.2c-0.6 0.6-6.9 1.3-27 2.4l-0.8-3.4c-0.4-1.9-0.7-5.9-0.7-8.9c0-3 0.3-7.6 1.5-14.8l8.5-0.7c4.7-0.3 10.1-1 12-1.5c1.9-0.4 3.8-0.9 4.2-0.9z"/>
		<path id="Path 37" class="s15" d="m692.5 406.7l0.3 3.4c0.2 1.9 1.1 3.9 2 4.6c1.3 0.9 2.2 0.9 4 0c1.2-0.7 2.2-1.5 2.2-1.9c0-0.5 0.6-0.8 1.2-0.8c0.7 0 3.1 0.9 5.3 2.1c2.2 1.2 10.8 5.6 19 9.8c8.3 4.2 19.3 10.3 34.3 19.6l-1.9 3.3c-1.7 2.9-2.3 3.2-11.9 3.2v5c0 4.2-0.3 4.9-1.7 4.7c-1-0.2-4.5-2-7.8-4.1c-3.3-2-15.8-9.5-27.7-16.7c-12-7.1-22.1-12.9-22.5-12.9c-0.5 0-2.3-0.9-7.3-4l2-3c1.1-1.6 1.9-3.4 1.9-3.9c-0.1-0.5 1.8-2.6 4.2-4.7zm-96.8 6.1c3.8 0.8 8.8 1.8 11.3 2.1c4.1 0.5 4.5 0.8 4.2 3.1c-0.1 1.4-0.6 10-1 19.2c-0.4 9.7-1.1 16.9-1.7 17.1c-0.5 0.2-5.4 0.2-20.5-0.3v-20c0-11 0.2-20.6 0.5-21.4c0.3-1.1 1.5-1.1 7.2 0.2z"/>
		<path id="Path 38" class="s16" d="m606.7 567.3c0.1 0.9 1 1.7 1.8 1.7c1 0 1.5 1.1 1.5 3.5c0 1.9 0.7 6.5 1.5 10.3c0.8 3.7 2.8 8.8 4.5 11.5c1.6 2.6 3 4.9 3 5.2c0 0.3-2 1.4-4.5 2.5c-2.5 1.1-5 2-5.5 2c-0.6 0-1 0.5-1 1c0 0.5 0.6 1.1 1.2 1.3c0.7 0.2-0.2 1-2 1.8c-2.7 1.1-3.5 1.1-4 0.1c-0.4-0.7-1.5-1-2.5-0.7c-0.9 0.3-1.7 0.8-1.7 1.3c0 0.4-0.7 0.7-1.7 0.7c-1 0-2.7-2.2-4.4-6c-1.6-3.3-3.3-8.9-3.9-12.5c-0.7-3.6-1-7.6-0.8-9c0.2-1.9 0.9-2.5 3.3-2.6c1.6-0.1 4.9-0.2 11.5-0.4l0.1-5.2c0.1-3.9 0.3-4.7 0.8-2.8c0.7 2.3 0.8 2.2 1.6-1.5c0.4-2.2 1-3.2 1.2-2.2zm89.6 2l6.6 5.5c3.6 3.1 6.9 5.8 7.2 6.1c0.4 0.3 0.9 1.8 1.3 3.4c0.6 2.6 0.1 3-8.7 8.1c-5 2.9-11.2 6.4-13.7 7.8c-2.5 1.4-8.7 5.1-23 13.8l-0.3-2.7c-0.2-2.3-0.8-2.9-3.2-3.1c-1.7-0.2-3.6-0.9-4.3-1.5c-0.7-0.7-1.3-2-1.2-2.9c0-1-1.3-3.3-5.9-8.3l2.7-1.3c1.5-0.8 6.5-3.8 11.2-6.7c4.7-3 13.6-8.2 19.9-11.8z"/>
		<path id="Path 39" class="s17" d="m651.3 596c0.4 0 1.8 1.4 3.2 3c1.4 1.6 2.5 3.8 2.5 4.8c-0.1 0.9 0.5 2.2 1.2 2.9c0.7 0.6 2.7 1.3 4.3 1.5c2.3 0.2 3.1 0.9 3.3 2.8c0.3 2.2-0.6 3-7.5 6.6c-4.3 2.3-9.8 4.9-12.3 5.7c-2.5 0.9-7.2 2-10.5 2.5c-3.7 0.6-8.1 0.6-11.5 0.1c-3-0.5-8.9-2.5-13-4.5c-4.1-1.9-9-5-10.8-6.7c-1.8-1.8-3.2-3.8-3.2-4.4c0-0.7 0.5-1.1 1-0.8c0.6 0.3 1 0 1-0.5c0-0.5 0.8-1.2 1.8-1.5c0.9-0.3 2 0 2.4 0.7c0.5 1 1.3 1 4-0.1c1.8-0.8 2.7-1.6 2.1-1.8c-0.7-0.2-1.3-0.8-1.3-1.3c0-0.5 0.6-1 1.3-1c0.6 0 3.3-1.1 6-2.5c4.2-2.2 4.8-2.3 6-0.9c0.6 0.8 2.8 1.9 4.7 2.5c2.6 0.7 5.3 0.4 10.8-1.1c3.9-1.1 8.7-2.9 10.5-4c1.7-1.1 3.5-2 4-2z"/>
		<path id="Path 40" class="s18" d="m741.8 543c0.6 0 2.4 0.9 4 2c1.6 1.3 4.2 2.1 10.2 2v5c0 2.8 0.3 4.8 0.8 4.6c0.4-0.2 1.6 0.2 2.7 1c1.1 0.7 1.8 1.5 1.5 1.7c-0.3 0.2-1.7 1.1-3.2 2c-2.4 1.5-2.9 1.5-3.3 0.2c-0.3-0.8-1.2-1.3-2-1c-0.8 0.3-1.3 1-1 1.5c0.3 0.5-0.3 1.1-1.2 1.1c-1 0.1-2.1 0.1-2.5 0c-0.5 0-0.8 0.9-0.8 2.2c0 1.7-1.6 3-7.7 6.2c-4.3 2.2-11.9 6.4-17 9.3c-5.1 2.8-9.8 5-10.3 4.7c-0.5-0.3-1-1.3-1-2.3c0-0.9-2.7-4-6.1-6.7c-3.3-2.8-6.5-5.6-7-6.3c-0.6-0.8-0.1-1.6 1.9-2.6c1.5-0.7 8.7-5 16-9.5c11.7-7.2 13.7-8.1 17.5-7.9c4 0.3 4.2 0.2 4.5-2.7c0.1-1.6 0.8-3.3 1.5-3.7c0.6-0.4 1.8-0.8 2.5-0.8zm-153.8 2h3c2.5 0 3 0.4 3 2.5c0 2.3 0.4 2.5 4.8 2.7c2.6 0 5.5 0 6.5 0c0.9-0.1 1.7 0.3 1.7 0.8c0 0.5 0.7 0.8 1.5 0.5c1-0.3 1.7 0.4 2.1 2.2c0.4 1.6 0.4 5.6 0 9c-0.4 4.7-1 6.3-2.1 6.3c-0.8 0-1.5-0.8-1.6-1.8c-0.1-0.9-0.7 0.1-1.4 2.3c-1.1 3.6-1.3 3.8-1.7 1.5c-0.3-1.4-0.6-0.2-0.8 8l-4.2 0.1c-2.4 0.1-5.8 0.2-10.8 0.4v-17.3z"/>
		<path id="Path 41" class="s25" d="m610.7 444.5c0.2 10.4 0.2 27.8 0 38.5c-0.1 10.7-0.2 2.2-0.2-19c0-21.2 0.1-29.9 0.2-19.5z"/>
		<path id="Path 42" class="s26" d="m504.5 238c2.9 3 3.6 4.4 4.1 9.5c0.4 4.1 0.2 7.1-0.8 9.5c-1.4 3.3-1.4 3-0.3-13.7l-3.2-2.7c-1.8-1.4-3.3-3.4-3.3-4.4c0-1.3 0.8-0.9 3.5 1.8zm124 160.2c1.1 0 2.9 0.3 4 0.8c1.5 0.7 0.9 0.9-2.5 0.9q-4.5 0-7.9 2.3c-1.8 1.3-4.4 3.9-5.8 5.8c-1.3 1.9-2.3 2.9-2.3 2.3c0-0.7 0.6-2.5 1.4-4c0.7-1.6 2.6-3.7 4.2-4.8c1.6-1.1 3.8-2.3 4.9-2.7c1.1-0.3 2.9-0.6 4-0.6zm-122.9 40.3c1 1.3 1.4 3.2 1 5.5c-0.3 1.9-1.6 5.5-3 8q-2.6 4.5-2.6 2.5c0.1-1.1 0.7-3.1 1.5-4.5c0.8-1.4 1.5-5 1.5-8c0.1-5.2 0.2-5.4 1.6-3.5z"/>
		<path id="Path 43" class="s27" d="m302 238c1.9 0 5.1 0.6 7 1.5c3.5 1.5 3.4 1.5-10.1 0.3l-2.9 3.6c-2.6 3.1-3 4.5-3.1 9.8q-0.2 6.3-1 4.3c-0.4-1.1-0.8-3.3-0.8-5c-0.1-1.7 0.4-4.6 1-6.5c0.7-1.9 2.4-4.5 3.8-5.7c1.5-1.3 4-2.3 6.1-2.3zm27.1 101.5l2 2.5c1.1 1.4 2 2.9 1.9 3.5c0 0.6-1.2 2.8-5.1 9l0.7-3.5c0.4-1.9 0.6-5.3 0.6-7.5zm-43.8 104c0.8 5.5 1.2 6.2 5 8.9c3.9 2.7 4.6 2.9 10.7 2.3c4.5-0.5 6-0.4 4.8 0.3c-1 0.6-3.9 1.3-6.5 1.6c-3.5 0.4-5.7 0-8.3-1.3c-1.9-1-4.5-3.4-5.7-5.3c-1.3-1.9-2.3-4.7-2.3-6.3c0-1.5 0.3-3.5 0.7-4.5q0.8-1.7 1.6 4.3z"/>
		<path id="Path 44" class="s28" d="m393.9 409c2 0 4.2 0.5 4.9 1.2c0.7 0.7 1.2 1.5 1.2 1.8c0 0.3-2.9 0.5-6.4 0.5c-6.1 0-6.4-0.1-4.9-1.8c1-1 3.1-1.7 5.2-1.7z"/>
		<path id="Path 45" class="s29" d="m615.5 593c0.6 0.1 2.8 1.8 5 3.9c3.2 3 5.1 3.9 9.5 4.5c5.2 0.8 5.3 0.9 2.5 1.7c-1.7 0.5-4.5 0.5-6.5-0.1c-1.9-0.5-4.6-2.2-6.1-3.7c-1.4-1.5-3.1-3.6-3.9-4.5c-0.8-1-1-1.8-0.5-1.8z"/>
	</g>
</svg>